<svg width="53" height="53" viewBox="0 0 53 53" fill="none" xmlns="http://www.w3.org/2000/svg">
<path fill-rule="evenodd" clip-rule="evenodd" d="M26.5 0C41.1355 0 53 11.8645 53 26.5C52.9995 41.1351 41.1352 53 26.5 53C11.8648 53 0.000527793 41.1351 0 26.5C0 11.8645 11.8645 0 26.5 0ZM18 34C16.8937 34 16 34.8938 16 36V38C14.8938 38 14 38.8938 14 40C14.0005 41.1058 14.8941 41.999 16 41.999H36C37.1059 41.999 37.9995 41.1058 38 40C38 38.8938 37.1063 38 36 38V36C36 34.8938 35.1063 34 34 34H18ZM21.9375 10.001C21.2813 10.026 20.7186 10.4817 20.5498 11.1191L16.0566 28.1191C16.0505 28.1378 16.0433 28.1631 16.0371 28.1816C15.9935 28.3813 15.9879 28.5878 16.0254 28.7812C16.0629 28.9748 16.1376 29.1631 16.25 29.3379C16.3185 29.4313 16.3875 29.5186 16.4746 29.5996C16.537 29.662 16.5999 29.7128 16.6748 29.7627C16.7247 29.8001 16.7749 29.8315 16.8311 29.8564C16.8622 29.8689 16.8936 29.8879 16.9248 29.9004C16.9998 29.9254 17.0754 29.95 17.1504 29.9688C17.3627 30.0186 17.5756 30.0189 17.7754 29.9814C17.9688 29.944 18.1499 29.8749 18.3184 29.7627C18.3369 29.7503 18.3622 29.7313 18.3809 29.7188C25.1495 24.8877 30.7125 24.9246 33.4688 25.3809C33.7625 25.4309 34.0504 25.6127 34.2441 25.9189C34.4064 26.2249 34.4937 26.5564 34.5 26.8936C34.4935 28.0558 33.5436 29 32.375 29H25.5C24.6688 29 24 29.6688 24 30.5C24.0003 31.331 24.6689 32 25.5 32H32.4121C35.2182 32 37.4997 29.7243 37.5 26.9121V26.875C37.5 26.1252 37.3247 25.3686 36.9873 24.6875C36.4561 23.594 35.5624 22.7068 34.4814 22.1631C30.1132 19.9571 27.3317 17.1256 25.6504 14.8633C24.813 13.7323 24.244 12.7377 23.8877 12.0439C23.7129 11.7006 23.5877 11.4254 23.5127 11.2441C23.4753 11.1507 23.4504 11.0877 23.4316 11.0439L23.4121 11.001V10.9941C23.187 10.3756 22.5936 9.97598 21.9375 10.001Z" fill="#F5F5F5"/>
</svg>
