<svg width="20" height="20" viewBox="0 0 20 20" fill="none" xmlns="http://www.w3.org/2000/svg">
<path d="M3.74586 6.20061C5.26931 2.72697 9.04934 0.769365 12.7175 1.74808C16.781 2.83227 19.1685 7.10918 18.0501 11.3008C16.9317 15.4925 12.731 18.0116 8.66749 16.9274C6.68937 16.3996 5.05227 15.097 4.05801 13.3163C3.91187 13.0545 3.58495 12.9673 3.32782 13.1215C3.07069 13.2757 2.98071 13.6129 3.12728 13.8755C4.26014 15.9044 6.12851 17.391 8.38328 17.9926C13.0171 19.229 17.8074 16.3563 19.0827 11.5764C20.3581 6.7964 17.6355 1.91922 13.0017 0.682869C8.76212 -0.448314 4.39149 1.86017 2.7018 5.92204L0.985209 5.46403L2.15902 9.77088L5.32231 6.62122L3.74586 6.20061Z" fill="white"/>
<rect x="9.76274" y="3.55013" width="0.887527" height="5.76893" rx="0.443764" fill="white"/>
<rect x="9.76274" y="9.03768" width="0.887528" height="5.54705" rx="0.443764" transform="rotate(-43.0915 9.76274 9.03768)" fill="white"/>
</svg>
